<?xml version="1.0" encoding="UTF-8"?>
<svg width="1000px" height="1000px" viewBox="0 0 1000 1000" version="1.1" xmlns="http://www.w3.org/2000/svg" xmlns:xlink="http://www.w3.org/1999/xlink">
    <!-- Generator: Sketch 63.1 (92452) - https://sketch.com -->
    <title>tree-silv</title>
    <desc>Created with Sketch.</desc>
    <g id="Page-1" stroke="none" stroke-width="1" fill="none" fill-rule="evenodd">
        <g id="tree-silv" fill-rule="nonzero">
            <circle id="Oval" fill="#72838A" cx="500" cy="500" r="500"></circle>
            <circle id="Oval" fill="#DDEEEE" cx="500" cy="500" r="370"></circle>
            <g id="tree-link" transform="translate(156.420000, 276.840000)" fill="#72838A">
                <g id="tree">
                    <g id="c-link" transform="translate(0.000000, 32.640000)">
                        <path d="M292.672,22.1 C314.364,42.16 334.016,70.176 342.72,113.424 L342.72,321.3 C332.18,321.3 314.908,327.896 312.12,333.064 C280.976,390.456 270.096,442.544 270.096,512.448 C270.096,525.912 270.776,540.532 272,553.656 L191.08,553.656 C194.48,464.848 222.836,391.136 279.48,330.276 C284.784,324.564 269.212,324.428 260.44,325.924 C252.70027,327.295141 244.991728,328.836849 237.32,330.548 C160.222312,382.341987 106.681019,462.47065 88.332,553.52 L5.984,553.52 C33.3003207,466.503027 93.2188734,393.426273 173.196,349.588 C110.568,373.116 47.26,415.956 0,461.516 L0,454.24 L1.36,452.88 C66.64,382.024 141.236,337.28 236.028,308.992 C255.544,303.212 269.28,268.396 269.28,247.52 C269.28,211.48 255.34,177.48 206.04,177.48 C156.808,177.48 118.048,247.52 153.408,278.12 C93.908,256.36 143.208,164.56 211.208,164.56 C253.3,164.56 277.78,177.48 290.36,197.812 L290.496,196.928 C292.332,186.388 292.332,174.964 292.264,170.612 C291.856,141.1 273.904,110.568 235.144,107.44 C196.52,104.312 136.272,116.28 104.992,171.224 C122.876,104.04 194.956,84.184 235.212,86.02 C271.728,87.72 308.652,111.656 320.348,149.056 C317.832,99.96 297.024,56.984 280.092,37.4 C260.712,14.96 208.352,0.68 157.352,41.82 C171.292,4.08 247.792,-19.38 292.672,22.1 Z" id="c"></path>
                    </g>
                    <g id="c-link" transform="translate(513.400000, 309.740000) scale(-1, 1) translate(-513.400000, -309.740000) translate(342.040000, 32.640000)">
                        <path d="M292.672,22.1 C314.364,42.16 334.016,70.176 342.72,113.424 L342.72,321.3 C332.18,321.3 314.908,327.896 312.12,333.064 C280.976,390.456 270.096,442.544 270.096,512.448 C270.096,525.912 270.776,540.532 272,553.656 L191.08,553.656 C194.48,464.848 222.836,391.136 279.48,330.276 C284.784,324.564 269.212,324.428 260.44,325.924 C252.70027,327.295141 244.991728,328.836849 237.32,330.548 C160.222312,382.341987 106.681019,462.47065 88.332,553.52 L5.984,553.52 C33.3003207,466.503027 93.2188734,393.426273 173.196,349.588 C110.568,373.116 47.26,415.956 0,461.516 L0,454.24 L1.36,452.88 C66.64,382.024 141.236,337.28 236.028,308.992 C255.544,303.212 269.28,268.396 269.28,247.52 C269.28,211.48 255.34,177.48 206.04,177.48 C156.808,177.48 118.048,247.52 153.408,278.12 C93.908,256.36 143.208,164.56 211.208,164.56 C253.3,164.56 277.78,177.48 290.36,197.812 L290.496,196.928 C292.332,186.388 292.332,174.964 292.264,170.612 C291.856,141.1 273.904,110.568 235.144,107.44 C196.52,104.312 136.272,116.28 104.992,171.224 C122.876,104.04 194.956,84.184 235.212,86.02 C271.728,87.72 308.652,111.656 320.348,149.056 C317.832,99.96 297.024,56.984 280.092,37.4 C260.712,14.96 208.352,0.68 157.352,41.82 C171.292,4.08 247.792,-19.38 292.672,22.1 Z" id="c"></path>
                    </g>
                    <g id="e-link" transform="translate(225.080000, 149.600000) scale(-1, 1) translate(-225.080000, -149.600000) translate(90.440000, 0.000000)">
                        <g id="e">
                            <g id="a-link" transform="translate(0.000000, 78.880000)">
                                <g id="a">
                                    <circle id="Oval" cx="17" cy="17" r="17"></circle>
                                    <circle id="Oval" cx="17" cy="17" r="12.92"></circle>
                                    <path d="M20.128,24.48 L17.068,21.352 L14.008,24.48 C12.92,25.568 8.568,21.216 9.656,20.128 L12.716,17.068 L9.656,14.008 C8.568,12.92 12.92,8.568 14.008,9.656 L17.068,12.716 L20.128,9.656 C21.216,8.568 25.568,12.92 24.48,14.008 L21.352,17 L24.48,20.06 C25.568,21.148 21.216,25.5 20.128,24.412 L20.128,24.48 Z" id="Path"></path>
                                </g>
                            </g>
                            <g id="a-link" transform="translate(20.400000, 43.520000)">
                                <g id="a">
                                    <circle id="Oval" cx="17" cy="17" r="17"></circle>
                                    <circle id="Oval" cx="17" cy="17" r="12.92"></circle>
                                    <path d="M20.128,24.48 L17.068,21.352 L14.008,24.48 C12.92,25.568 8.568,21.216 9.656,20.128 L12.716,17.068 L9.656,14.008 C8.568,12.92 12.92,8.568 14.008,9.656 L17.068,12.716 L20.128,9.656 C21.216,8.568 25.568,12.92 24.48,14.008 L21.352,17 L24.48,20.06 C25.568,21.148 21.216,25.5 20.128,24.412 L20.128,24.48 Z" id="Path"></path>
                                </g>
                            </g>
                            <g id="a-link" transform="translate(50.320000, 15.640000)">
                                <g id="a">
                                    <circle id="Oval" cx="17" cy="17" r="17"></circle>
                                    <circle id="Oval" cx="17" cy="17" r="12.92"></circle>
                                    <path d="M20.128,24.48 L17.068,21.352 L14.008,24.48 C12.92,25.568 8.568,21.216 9.656,20.128 L12.716,17.068 L9.656,14.008 C8.568,12.92 12.92,8.568 14.008,9.656 L17.068,12.716 L20.128,9.656 C21.216,8.568 25.568,12.92 24.48,14.008 L21.352,17 L24.48,20.06 C25.568,21.148 21.216,25.5 20.128,24.412 L20.128,24.48 Z" id="Path"></path>
                                </g>
                            </g>
                            <g id="a-link" transform="translate(89.080000, 0.000000)">
                                <g id="a">
                                    <circle id="Oval" cx="17" cy="17" r="17"></circle>
                                    <circle id="Oval" cx="17" cy="17" r="12.92"></circle>
                                    <path d="M20.128,24.48 L17.068,21.352 L14.008,24.48 C12.92,25.568 8.568,21.216 9.656,20.128 L12.716,17.068 L9.656,14.008 C8.568,12.92 12.92,8.568 14.008,9.656 L17.068,12.716 L20.128,9.656 C21.216,8.568 25.568,12.92 24.48,14.008 L21.352,17 L24.48,20.06 C25.568,21.148 21.216,25.5 20.128,24.412 L20.128,24.48 Z" id="Path"></path>
                                </g>
                            </g>
                            <g id="a-link" transform="translate(129.200000, 0.680000)">
                                <g id="a">
                                    <circle id="Oval" cx="17" cy="17" r="17"></circle>
                                    <circle id="Oval" cx="17" cy="17" r="12.92"></circle>
                                    <path d="M20.128,24.48 L17.068,21.352 L14.008,24.48 C12.92,25.568 8.568,21.216 9.656,20.128 L12.716,17.068 L9.656,14.008 C8.568,12.92 12.92,8.568 14.008,9.656 L17.068,12.716 L20.128,9.656 C21.216,8.568 25.568,12.92 24.48,14.008 L21.352,17 L24.48,20.06 C25.568,21.148 21.216,25.5 20.128,24.412 L20.128,24.48 Z" id="Path"></path>
                                </g>
                            </g>
                            <g id="a-link" transform="translate(170.680000, 15.640000)">
                                <g id="a">
                                    <circle id="Oval" cx="17" cy="17" r="17"></circle>
                                    <circle id="Oval" cx="17" cy="17" r="12.92"></circle>
                                    <path d="M20.128,24.48 L17.068,21.352 L14.008,24.48 C12.92,25.568 8.568,21.216 9.656,20.128 L12.716,17.068 L9.656,14.008 C8.568,12.92 12.92,8.568 14.008,9.656 L17.068,12.716 L20.128,9.656 C21.216,8.568 25.568,12.92 24.48,14.008 L21.352,17 L24.48,20.06 C25.568,21.148 21.216,25.5 20.128,24.412 L20.128,24.48 Z" id="Path"></path>
                                </g>
                            </g>
                            <g id="a-link" transform="translate(125.800000, 48.960000)">
                                <g id="a">
                                    <circle id="Oval" cx="17" cy="17" r="17"></circle>
                                    <circle id="Oval" cx="17" cy="17" r="12.92"></circle>
                                    <path d="M20.128,24.48 L17.068,21.352 L14.008,24.48 C12.92,25.568 8.568,21.216 9.656,20.128 L12.716,17.068 L9.656,14.008 C8.568,12.92 12.92,8.568 14.008,9.656 L17.068,12.716 L20.128,9.656 C21.216,8.568 25.568,12.92 24.48,14.008 L21.352,17 L24.48,20.06 C25.568,21.148 21.216,25.5 20.128,24.412 L20.128,24.48 Z" id="Path"></path>
                                </g>
                            </g>
                            <g id="a-link" transform="translate(85.000000, 56.440000)">
                                <g id="a">
                                    <circle id="Oval" cx="17" cy="17" r="17"></circle>
                                    <circle id="Oval" cx="17" cy="17" r="12.92"></circle>
                                    <path d="M20.128,24.48 L17.068,21.352 L14.008,24.48 C12.92,25.568 8.568,21.216 9.656,20.128 L12.716,17.068 L9.656,14.008 C8.568,12.92 12.92,8.568 14.008,9.656 L17.068,12.716 L20.128,9.656 C21.216,8.568 25.568,12.92 24.48,14.008 L21.352,17 L24.48,20.06 C25.568,21.148 21.216,25.5 20.128,24.412 L20.128,24.48 Z" id="Path"></path>
                                </g>
                            </g>
                            <g id="a-link" transform="translate(165.920000, 63.920000)">
                                <g id="a">
                                    <circle id="Oval" cx="17" cy="17" r="17"></circle>
                                    <circle id="Oval" cx="17" cy="17" r="12.92"></circle>
                                    <path d="M20.128,24.48 L17.068,21.352 L14.008,24.48 C12.92,25.568 8.568,21.216 9.656,20.128 L12.716,17.068 L9.656,14.008 C8.568,12.92 12.92,8.568 14.008,9.656 L17.068,12.716 L20.128,9.656 C21.216,8.568 25.568,12.92 24.48,14.008 L21.352,17 L24.48,20.06 C25.568,21.148 21.216,25.5 20.128,24.412 L20.128,24.48 Z" id="Path"></path>
                                </g>
                            </g>
                            <g id="a-link" transform="translate(59.160000, 90.440000)">
                                <g id="a">
                                    <circle id="Oval" cx="17" cy="17" r="17"></circle>
                                    <circle id="Oval" cx="17" cy="17" r="12.92"></circle>
                                    <path d="M20.128,24.48 L17.068,21.352 L14.008,24.48 C12.92,25.568 8.568,21.216 9.656,20.128 L12.716,17.068 L9.656,14.008 C8.568,12.92 12.92,8.568 14.008,9.656 L17.068,12.716 L20.128,9.656 C21.216,8.568 25.568,12.92 24.48,14.008 L21.352,17 L24.48,20.06 C25.568,21.148 21.216,25.5 20.128,24.412 L20.128,24.48 Z" id="Path"></path>
                                </g>
                            </g>
                            <g id="a-link" transform="translate(102.680000, 140.760000)">
                                <g id="a">
                                    <circle id="Oval" cx="17" cy="17" r="17"></circle>
                                    <circle id="Oval" cx="17" cy="17" r="12.92"></circle>
                                    <path d="M20.128,24.48 L17.068,21.352 L14.008,24.48 C12.92,25.568 8.568,21.216 9.656,20.128 L12.716,17.068 L9.656,14.008 C8.568,12.92 12.92,8.568 14.008,9.656 L17.068,12.716 L20.128,9.656 C21.216,8.568 25.568,12.92 24.48,14.008 L21.352,17 L24.48,20.06 C25.568,21.148 21.216,25.5 20.128,24.412 L20.128,24.48 Z" id="Path"></path>
                                </g>
                            </g>
                            <g id="a-link" transform="translate(146.880000, 142.800000)">
                                <g id="a">
                                    <circle id="Oval" cx="17" cy="17" r="17"></circle>
                                    <circle id="Oval" cx="17" cy="17" r="12.92"></circle>
                                    <path d="M20.128,24.48 L17.068,21.352 L14.008,24.48 C12.92,25.568 8.568,21.216 9.656,20.128 L12.716,17.068 L9.656,14.008 C8.568,12.92 12.92,8.568 14.008,9.656 L17.068,12.716 L20.128,9.656 C21.216,8.568 25.568,12.92 24.48,14.008 L21.352,17 L24.48,20.06 C25.568,21.148 21.216,25.5 20.128,24.412 L20.128,24.48 Z" id="Path"></path>
                                </g>
                            </g>
                            <g id="a-link" transform="translate(187.680000, 159.120000)">
                                <g id="a">
                                    <circle id="Oval" cx="17" cy="17" r="17"></circle>
                                    <circle id="Oval" cx="17" cy="17" r="12.92"></circle>
                                    <path d="M20.128,24.48 L17.068,21.352 L14.008,24.48 C12.92,25.568 8.568,21.216 9.656,20.128 L12.716,17.068 L9.656,14.008 C8.568,12.92 12.92,8.568 14.008,9.656 L17.068,12.716 L20.128,9.656 C21.216,8.568 25.568,12.92 24.48,14.008 L21.352,17 L24.48,20.06 C25.568,21.148 21.216,25.5 20.128,24.412 L20.128,24.48 Z" id="Path"></path>
                                </g>
                            </g>
                            <g id="a-link" transform="translate(235.280000, 143.480000)">
                                <g id="a">
                                    <circle id="Oval" cx="17" cy="17" r="17"></circle>
                                    <circle id="Oval" cx="17" cy="17" r="12.92"></circle>
                                    <path d="M20.128,24.48 L17.068,21.352 L14.008,24.48 C12.92,25.568 8.568,21.216 9.656,20.128 L12.716,17.068 L9.656,14.008 C8.568,12.92 12.92,8.568 14.008,9.656 L17.068,12.716 L20.128,9.656 C21.216,8.568 25.568,12.92 24.48,14.008 L21.352,17 L24.48,20.06 C25.568,21.148 21.216,25.5 20.128,24.412 L20.128,24.48 Z" id="Path"></path>
                                </g>
                            </g>
                            <g id="a-link" transform="translate(195.840000, 107.440000)">
                                <g id="a">
                                    <circle id="Oval" cx="17" cy="17" r="17"></circle>
                                    <circle id="Oval" cx="17" cy="17" r="12.92"></circle>
                                    <path d="M20.128,24.48 L17.068,21.352 L14.008,24.48 C12.92,25.568 8.568,21.216 9.656,20.128 L12.716,17.068 L9.656,14.008 C8.568,12.92 12.92,8.568 14.008,9.656 L17.068,12.716 L20.128,9.656 C21.216,8.568 25.568,12.92 24.48,14.008 L21.352,17 L24.48,20.06 C25.568,21.148 21.216,25.5 20.128,24.412 L20.128,24.48 Z" id="Path"></path>
                                </g>
                            </g>
                            <g id="a-link" transform="translate(221.000000, 193.120000)">
                                <g id="a">
                                    <circle id="Oval" cx="17" cy="17" r="17"></circle>
                                    <circle id="Oval" cx="17" cy="17" r="12.92"></circle>
                                    <path d="M20.128,24.48 L17.068,21.352 L14.008,24.48 C12.92,25.568 8.568,21.216 9.656,20.128 L12.716,17.068 L9.656,14.008 C8.568,12.92 12.92,8.568 14.008,9.656 L17.068,12.716 L20.128,9.656 C21.216,8.568 25.568,12.92 24.48,14.008 L21.352,17 L24.48,20.06 C25.568,21.148 21.216,25.5 20.128,24.412 L20.128,24.48 Z" id="Path"></path>
                                </g>
                            </g>
                            <g id="a-link" transform="translate(133.280000, 210.120000)">
                                <g id="a">
                                    <circle id="Oval" cx="17" cy="17" r="17"></circle>
                                    <circle id="Oval" cx="17" cy="17" r="12.92"></circle>
                                    <path d="M20.128,24.48 L17.068,21.352 L14.008,24.48 C12.92,25.568 8.568,21.216 9.656,20.128 L12.716,17.068 L9.656,14.008 C8.568,12.92 12.92,8.568 14.008,9.656 L17.068,12.716 L20.128,9.656 C21.216,8.568 25.568,12.92 24.48,14.008 L21.352,17 L24.48,20.06 C25.568,21.148 21.216,25.5 20.128,24.412 L20.128,24.48 Z" id="Path"></path>
                                </g>
                            </g>
                            <g id="a-link" transform="translate(171.360000, 228.480000)">
                                <g id="a">
                                    <circle id="Oval" cx="17" cy="17" r="17"></circle>
                                    <circle id="Oval" cx="17" cy="17" r="12.92"></circle>
                                    <path d="M20.128,24.48 L17.068,21.352 L14.008,24.48 C12.92,25.568 8.568,21.216 9.656,20.128 L12.716,17.068 L9.656,14.008 C8.568,12.92 12.92,8.568 14.008,9.656 L17.068,12.716 L20.128,9.656 C21.216,8.568 25.568,12.92 24.48,14.008 L21.352,17 L24.48,20.06 C25.568,21.148 21.216,25.5 20.128,24.412 L20.128,24.48 Z" id="Path"></path>
                                </g>
                            </g>
                            <g id="a-link" transform="translate(185.640000, 265.200000)">
                                <g id="a">
                                    <circle id="Oval" cx="17" cy="17" r="17"></circle>
                                    <circle id="Oval" cx="17" cy="17" r="12.92"></circle>
                                    <path d="M20.128,24.48 L17.068,21.352 L14.008,24.48 C12.92,25.568 8.568,21.216 9.656,20.128 L12.716,17.068 L9.656,14.008 C8.568,12.92 12.92,8.568 14.008,9.656 L17.068,12.716 L20.128,9.656 C21.216,8.568 25.568,12.92 24.48,14.008 L21.352,17 L24.48,20.06 C25.568,21.148 21.216,25.5 20.128,24.412 L20.128,24.48 Z" id="Path"></path>
                                </g>
                            </g>
                            <g id="a-link" transform="translate(231.200000, 245.480000)">
                                <g id="a">
                                    <circle id="Oval" cx="17" cy="17" r="17"></circle>
                                    <circle id="Oval" cx="17" cy="17" r="12.92"></circle>
                                    <path d="M20.128,24.48 L17.068,21.352 L14.008,24.48 C12.92,25.568 8.568,21.216 9.656,20.128 L12.716,17.068 L9.656,14.008 C8.568,12.92 12.92,8.568 14.008,9.656 L17.068,12.716 L20.128,9.656 C21.216,8.568 25.568,12.92 24.48,14.008 L21.352,17 L24.48,20.06 C25.568,21.148 21.216,25.5 20.128,24.412 L20.128,24.48 Z" id="Path"></path>
                                </g>
                            </g>
                        </g>
                    </g>
                    <g id="e-link" transform="translate(325.720000, 0.000000)">
                        <g id="e">
                            <g id="a-link" transform="translate(0.000000, 78.880000)">
                                <g id="a">
                                    <circle id="Oval" cx="17" cy="17" r="17"></circle>
                                    <circle id="Oval" cx="17" cy="17" r="12.92"></circle>
                                    <path d="M20.128,24.48 L17.068,21.352 L14.008,24.48 C12.92,25.568 8.568,21.216 9.656,20.128 L12.716,17.068 L9.656,14.008 C8.568,12.92 12.92,8.568 14.008,9.656 L17.068,12.716 L20.128,9.656 C21.216,8.568 25.568,12.92 24.48,14.008 L21.352,17 L24.48,20.06 C25.568,21.148 21.216,25.5 20.128,24.412 L20.128,24.48 Z" id="Path"></path>
                                </g>
                            </g>
                            <g id="a-link" transform="translate(20.400000, 43.520000)">
                                <g id="a">
                                    <circle id="Oval" cx="17" cy="17" r="17"></circle>
                                    <circle id="Oval" cx="17" cy="17" r="12.92"></circle>
                                    <path d="M20.128,24.48 L17.068,21.352 L14.008,24.48 C12.92,25.568 8.568,21.216 9.656,20.128 L12.716,17.068 L9.656,14.008 C8.568,12.92 12.92,8.568 14.008,9.656 L17.068,12.716 L20.128,9.656 C21.216,8.568 25.568,12.92 24.48,14.008 L21.352,17 L24.48,20.06 C25.568,21.148 21.216,25.5 20.128,24.412 L20.128,24.48 Z" id="Path"></path>
                                </g>
                            </g>
                            <g id="a-link" transform="translate(50.320000, 15.640000)">
                                <g id="a">
                                    <circle id="Oval" cx="17" cy="17" r="17"></circle>
                                    <circle id="Oval" cx="17" cy="17" r="12.92"></circle>
                                    <path d="M20.128,24.48 L17.068,21.352 L14.008,24.48 C12.92,25.568 8.568,21.216 9.656,20.128 L12.716,17.068 L9.656,14.008 C8.568,12.92 12.92,8.568 14.008,9.656 L17.068,12.716 L20.128,9.656 C21.216,8.568 25.568,12.92 24.48,14.008 L21.352,17 L24.48,20.06 C25.568,21.148 21.216,25.5 20.128,24.412 L20.128,24.48 Z" id="Path"></path>
                                </g>
                            </g>
                            <g id="a-link" transform="translate(89.080000, 0.000000)">
                                <g id="a">
                                    <circle id="Oval" cx="17" cy="17" r="17"></circle>
                                    <circle id="Oval" cx="17" cy="17" r="12.92"></circle>
                                    <path d="M20.128,24.48 L17.068,21.352 L14.008,24.48 C12.92,25.568 8.568,21.216 9.656,20.128 L12.716,17.068 L9.656,14.008 C8.568,12.92 12.92,8.568 14.008,9.656 L17.068,12.716 L20.128,9.656 C21.216,8.568 25.568,12.92 24.48,14.008 L21.352,17 L24.48,20.06 C25.568,21.148 21.216,25.5 20.128,24.412 L20.128,24.48 Z" id="Path"></path>
                                </g>
                            </g>
                            <g id="a-link" transform="translate(129.200000, 0.680000)">
                                <g id="a">
                                    <circle id="Oval" cx="17" cy="17" r="17"></circle>
                                    <circle id="Oval" cx="17" cy="17" r="12.92"></circle>
                                    <path d="M20.128,24.48 L17.068,21.352 L14.008,24.48 C12.92,25.568 8.568,21.216 9.656,20.128 L12.716,17.068 L9.656,14.008 C8.568,12.92 12.92,8.568 14.008,9.656 L17.068,12.716 L20.128,9.656 C21.216,8.568 25.568,12.92 24.48,14.008 L21.352,17 L24.48,20.06 C25.568,21.148 21.216,25.5 20.128,24.412 L20.128,24.48 Z" id="Path"></path>
                                </g>
                            </g>
                            <g id="a-link" transform="translate(170.680000, 15.640000)">
                                <g id="a">
                                    <circle id="Oval" cx="17" cy="17" r="17"></circle>
                                    <circle id="Oval" cx="17" cy="17" r="12.92"></circle>
                                    <path d="M20.128,24.48 L17.068,21.352 L14.008,24.48 C12.92,25.568 8.568,21.216 9.656,20.128 L12.716,17.068 L9.656,14.008 C8.568,12.92 12.92,8.568 14.008,9.656 L17.068,12.716 L20.128,9.656 C21.216,8.568 25.568,12.92 24.48,14.008 L21.352,17 L24.48,20.06 C25.568,21.148 21.216,25.5 20.128,24.412 L20.128,24.48 Z" id="Path"></path>
                                </g>
                            </g>
                            <g id="a-link" transform="translate(125.800000, 48.960000)">
                                <g id="a">
                                    <circle id="Oval" cx="17" cy="17" r="17"></circle>
                                    <circle id="Oval" cx="17" cy="17" r="12.92"></circle>
                                    <path d="M20.128,24.48 L17.068,21.352 L14.008,24.48 C12.92,25.568 8.568,21.216 9.656,20.128 L12.716,17.068 L9.656,14.008 C8.568,12.92 12.92,8.568 14.008,9.656 L17.068,12.716 L20.128,9.656 C21.216,8.568 25.568,12.92 24.48,14.008 L21.352,17 L24.48,20.06 C25.568,21.148 21.216,25.5 20.128,24.412 L20.128,24.48 Z" id="Path"></path>
                                </g>
                            </g>
                            <g id="a-link" transform="translate(85.000000, 56.440000)">
                                <g id="a">
                                    <circle id="Oval" cx="17" cy="17" r="17"></circle>
                                    <circle id="Oval" cx="17" cy="17" r="12.92"></circle>
                                    <path d="M20.128,24.48 L17.068,21.352 L14.008,24.48 C12.92,25.568 8.568,21.216 9.656,20.128 L12.716,17.068 L9.656,14.008 C8.568,12.92 12.92,8.568 14.008,9.656 L17.068,12.716 L20.128,9.656 C21.216,8.568 25.568,12.92 24.48,14.008 L21.352,17 L24.48,20.06 C25.568,21.148 21.216,25.5 20.128,24.412 L20.128,24.48 Z" id="Path"></path>
                                </g>
                            </g>
                            <g id="a-link" transform="translate(165.920000, 63.920000)">
                                <g id="a">
                                    <circle id="Oval" cx="17" cy="17" r="17"></circle>
                                    <circle id="Oval" cx="17" cy="17" r="12.92"></circle>
                                    <path d="M20.128,24.48 L17.068,21.352 L14.008,24.48 C12.92,25.568 8.568,21.216 9.656,20.128 L12.716,17.068 L9.656,14.008 C8.568,12.92 12.92,8.568 14.008,9.656 L17.068,12.716 L20.128,9.656 C21.216,8.568 25.568,12.92 24.48,14.008 L21.352,17 L24.48,20.06 C25.568,21.148 21.216,25.5 20.128,24.412 L20.128,24.48 Z" id="Path"></path>
                                </g>
                            </g>
                            <g id="a-link" transform="translate(59.160000, 90.440000)">
                                <g id="a">
                                    <circle id="Oval" cx="17" cy="17" r="17"></circle>
                                    <circle id="Oval" cx="17" cy="17" r="12.92"></circle>
                                    <path d="M20.128,24.48 L17.068,21.352 L14.008,24.48 C12.92,25.568 8.568,21.216 9.656,20.128 L12.716,17.068 L9.656,14.008 C8.568,12.92 12.92,8.568 14.008,9.656 L17.068,12.716 L20.128,9.656 C21.216,8.568 25.568,12.92 24.48,14.008 L21.352,17 L24.48,20.06 C25.568,21.148 21.216,25.5 20.128,24.412 L20.128,24.48 Z" id="Path"></path>
                                </g>
                            </g>
                            <g id="a-link" transform="translate(102.680000, 140.760000)">
                                <g id="a">
                                    <circle id="Oval" cx="17" cy="17" r="17"></circle>
                                    <circle id="Oval" cx="17" cy="17" r="12.92"></circle>
                                    <path d="M20.128,24.48 L17.068,21.352 L14.008,24.48 C12.92,25.568 8.568,21.216 9.656,20.128 L12.716,17.068 L9.656,14.008 C8.568,12.92 12.92,8.568 14.008,9.656 L17.068,12.716 L20.128,9.656 C21.216,8.568 25.568,12.92 24.48,14.008 L21.352,17 L24.48,20.06 C25.568,21.148 21.216,25.5 20.128,24.412 L20.128,24.48 Z" id="Path"></path>
                                </g>
                            </g>
                            <g id="a-link" transform="translate(146.880000, 142.800000)">
                                <g id="a">
                                    <circle id="Oval" cx="17" cy="17" r="17"></circle>
                                    <circle id="Oval" cx="17" cy="17" r="12.92"></circle>
                                    <path d="M20.128,24.48 L17.068,21.352 L14.008,24.48 C12.92,25.568 8.568,21.216 9.656,20.128 L12.716,17.068 L9.656,14.008 C8.568,12.92 12.92,8.568 14.008,9.656 L17.068,12.716 L20.128,9.656 C21.216,8.568 25.568,12.92 24.48,14.008 L21.352,17 L24.48,20.06 C25.568,21.148 21.216,25.5 20.128,24.412 L20.128,24.48 Z" id="Path"></path>
                                </g>
                            </g>
                            <g id="a-link" transform="translate(187.680000, 159.120000)">
                                <g id="a">
                                    <circle id="Oval" cx="17" cy="17" r="17"></circle>
                                    <circle id="Oval" cx="17" cy="17" r="12.92"></circle>
                                    <path d="M20.128,24.48 L17.068,21.352 L14.008,24.48 C12.92,25.568 8.568,21.216 9.656,20.128 L12.716,17.068 L9.656,14.008 C8.568,12.92 12.92,8.568 14.008,9.656 L17.068,12.716 L20.128,9.656 C21.216,8.568 25.568,12.92 24.48,14.008 L21.352,17 L24.48,20.06 C25.568,21.148 21.216,25.5 20.128,24.412 L20.128,24.48 Z" id="Path"></path>
                                </g>
                            </g>
                            <g id="a-link" transform="translate(235.280000, 143.480000)">
                                <g id="a">
                                    <circle id="Oval" cx="17" cy="17" r="17"></circle>
                                    <circle id="Oval" cx="17" cy="17" r="12.92"></circle>
                                    <path d="M20.128,24.48 L17.068,21.352 L14.008,24.48 C12.92,25.568 8.568,21.216 9.656,20.128 L12.716,17.068 L9.656,14.008 C8.568,12.92 12.92,8.568 14.008,9.656 L17.068,12.716 L20.128,9.656 C21.216,8.568 25.568,12.92 24.48,14.008 L21.352,17 L24.48,20.06 C25.568,21.148 21.216,25.5 20.128,24.412 L20.128,24.48 Z" id="Path"></path>
                                </g>
                            </g>
                            <g id="a-link" transform="translate(195.840000, 107.440000)">
                                <g id="a">
                                    <circle id="Oval" cx="17" cy="17" r="17"></circle>
                                    <circle id="Oval" cx="17" cy="17" r="12.92"></circle>
                                    <path d="M20.128,24.48 L17.068,21.352 L14.008,24.48 C12.92,25.568 8.568,21.216 9.656,20.128 L12.716,17.068 L9.656,14.008 C8.568,12.92 12.92,8.568 14.008,9.656 L17.068,12.716 L20.128,9.656 C21.216,8.568 25.568,12.92 24.48,14.008 L21.352,17 L24.48,20.06 C25.568,21.148 21.216,25.5 20.128,24.412 L20.128,24.48 Z" id="Path"></path>
                                </g>
                            </g>
                            <g id="a-link" transform="translate(221.000000, 193.120000)">
                                <g id="a">
                                    <circle id="Oval" cx="17" cy="17" r="17"></circle>
                                    <circle id="Oval" cx="17" cy="17" r="12.92"></circle>
                                    <path d="M20.128,24.48 L17.068,21.352 L14.008,24.48 C12.92,25.568 8.568,21.216 9.656,20.128 L12.716,17.068 L9.656,14.008 C8.568,12.92 12.92,8.568 14.008,9.656 L17.068,12.716 L20.128,9.656 C21.216,8.568 25.568,12.92 24.48,14.008 L21.352,17 L24.48,20.06 C25.568,21.148 21.216,25.5 20.128,24.412 L20.128,24.48 Z" id="Path"></path>
                                </g>
                            </g>
                            <g id="a-link" transform="translate(133.280000, 210.120000)">
                                <g id="a">
                                    <circle id="Oval" cx="17" cy="17" r="17"></circle>
                                    <circle id="Oval" cx="17" cy="17" r="12.92"></circle>
                                    <path d="M20.128,24.48 L17.068,21.352 L14.008,24.48 C12.92,25.568 8.568,21.216 9.656,20.128 L12.716,17.068 L9.656,14.008 C8.568,12.92 12.92,8.568 14.008,9.656 L17.068,12.716 L20.128,9.656 C21.216,8.568 25.568,12.92 24.48,14.008 L21.352,17 L24.48,20.06 C25.568,21.148 21.216,25.5 20.128,24.412 L20.128,24.48 Z" id="Path"></path>
                                </g>
                            </g>
                            <g id="a-link" transform="translate(171.360000, 228.480000)">
                                <g id="a">
                                    <circle id="Oval" cx="17" cy="17" r="17"></circle>
                                    <circle id="Oval" cx="17" cy="17" r="12.92"></circle>
                                    <path d="M20.128,24.48 L17.068,21.352 L14.008,24.48 C12.92,25.568 8.568,21.216 9.656,20.128 L12.716,17.068 L9.656,14.008 C8.568,12.92 12.92,8.568 14.008,9.656 L17.068,12.716 L20.128,9.656 C21.216,8.568 25.568,12.92 24.48,14.008 L21.352,17 L24.48,20.06 C25.568,21.148 21.216,25.5 20.128,24.412 L20.128,24.48 Z" id="Path"></path>
                                </g>
                            </g>
                            <g id="a-link" transform="translate(185.640000, 265.200000)">
                                <g id="a">
                                    <circle id="Oval" cx="17" cy="17" r="17"></circle>
                                    <circle id="Oval" cx="17" cy="17" r="12.92"></circle>
                                    <path d="M20.128,24.48 L17.068,21.352 L14.008,24.48 C12.92,25.568 8.568,21.216 9.656,20.128 L12.716,17.068 L9.656,14.008 C8.568,12.92 12.92,8.568 14.008,9.656 L17.068,12.716 L20.128,9.656 C21.216,8.568 25.568,12.92 24.48,14.008 L21.352,17 L24.48,20.06 C25.568,21.148 21.216,25.5 20.128,24.412 L20.128,24.48 Z" id="Path"></path>
                                </g>
                            </g>
                            <g id="a-link" transform="translate(231.200000, 245.480000)">
                                <g id="a">
                                    <circle id="Oval" cx="17" cy="17" r="17"></circle>
                                    <circle id="Oval" cx="17" cy="17" r="12.92"></circle>
                                    <path d="M20.128,24.48 L17.068,21.352 L14.008,24.48 C12.92,25.568 8.568,21.216 9.656,20.128 L12.716,17.068 L9.656,14.008 C8.568,12.92 12.92,8.568 14.008,9.656 L17.068,12.716 L20.128,9.656 C21.216,8.568 25.568,12.92 24.48,14.008 L21.352,17 L24.48,20.06 C25.568,21.148 21.216,25.5 20.128,24.412 L20.128,24.48 Z" id="Path"></path>
                                </g>
                            </g>
                        </g>
                    </g>
                </g>
            </g>
            <g id="Group" transform="translate(372.000000, 29.000000)" fill="#DDEEEE">
                <polygon id="Path" points="25.4 85.4 18.9 55 46.5 49.1 53 79.5 63.5 77.3 48.7 7.6 38.1 10 44.5 39.8 16.9 45.7 10.6 15.9 0 18 14.8 87.6"></polygon>
                <g id="0-link" transform="translate(103.099341, 38.379054) rotate(-3.891707) translate(-103.099341, -38.379054) translate(76.464246, 1.844579)">
                    <path d="M26.2453125,72.4689134 C48.0730971,72.3682893 52.2307704,58.4551604 52.4906249,51.949021 L52.4906249,20.5193628 C52.3606976,13.9131289 48.0730971,-0.200188905 26.2453125,-4.33680869e-19 C4.28760055,0.200188905 0,13.9131289 0,20.5193628 L0,51.949021 C0,58.4551604 4.28760055,72.5684782 26.2453125,72.4689134 Z" id="0"></path>
                </g>
                <path d="M167.7,76.3 C198.9,80.3 205,39.5 174.6,35.3 C149.2,31.8 155.4,13.3 169.1,14.7 C175.5,15 181.3,17.1 186.5,20.8 L192.8,12 C186.206399,7.04674451 178.242969,4.2525585 170,4 C136,3.6 139.2,41.7 168.3,44.7 C189.6,47 188.9,66.4 168,65.5 C160.617132,65.3649477 153.524932,62.5989898 148,57.7 L140.7,65.6 C148.281392,71.9688199 157.715437,75.7213953 167.6,76.3 L167.7,76.3 Z"></path>
                <path d="m599.5 115.2 13.9-60 19 4.4 2.1-9.4L586 39l-2.2 9.4 19 4.3-13.8 60z"/>
            </g>
            <g id="Group" fill="#DDEEEE">
                <polygon id="#" points="13.9 71.2 17 49.4 26.8 49.4 23.7 71.2 31.5 71.2 34.6 49.4 44.5 49.4 44.5 42.8 35.3 42.8 37.5 28.4 47.4 28.4 47.4 21.8 38.2 21.8 41.3 0 33.5 0 30.4 21.8 20.6 21.8 23.7 0 15.9 0 12.8 21.8 2.9 21.8 2.9 28.4 12.1 28.4 9.9 42.8 0 42.8 0 49.4 9.2 49.4 6.1 71.2"></polygon>
                <polygon id="1" points="20.2 71.2 20.2 0 0 0 10 10.8 10 71.2"></polygon>
                <path xmlns="http://www.w3.org/2000/svg" d="m599.5 115.2 13.9-60 19 4.4 2.1-9.4L586 39l-2.2 9.4 19 4.3-13.8 60z"/>
            </g>
        </g>
    </g>
</svg>