<?xml version="1.0" encoding="UTF-8"?>
<svg width="1000px" height="1000px" viewBox="0 0 1000 1000" version="1.1" xmlns="http://www.w3.org/2000/svg" xmlns:xlink="http://www.w3.org/1999/xlink">
    <!-- Generator: Sketch 63.1 (92452) - https://sketch.com -->
    <title>Custom Preset 2</title>
    <desc>Created with Sketch.</desc>
    <g id="Custom-Preset-2" stroke="none" stroke-width="1" fill="none" fill-rule="evenodd">
        <g id="tree-silv" transform="translate(-10.500000, -61.500000)" fill-rule="nonzero">
            <circle id="Oval" fill="#DDEEEE" cx="500" cy="500" r="400"></circle>
            <path d="M500,0 C776.142375,0 1000,223.857625 1000,500 C1000,776.142375 776.142375,1000 500,1000 C223.857625,1000 0,776.142375 0,500 C0,223.857625 223.857625,0 500,0 Z M500,130 C295.654643,130 130,295.654643 130,500 C130,704.345357 295.654643,870 500,870 C704.345357,870 870,704.345357 870,500 C870,295.654643 704.345357,130 500,130 Z" id="Shape" fill="#72838A"></path>
        </g>
        <path d="M0.000735282567,150.000005 C56.9731672,149.769475 52.2528682,119.871406 86.3858694,85.3960045 C120.518871,50.9206028 149.770067,52.4335957 150.001258,0.000716407703 C150.227388,-52.4321629 119.593366,-51.9943716 86.0137772,-85.76882 C52.4341884,-119.543268 53.9471813,-149.803127 0.000735282567,-150.000891 C-53.9457107,-150.191425 -52.0431791,-119.509249 -85.7929275,-85.9882487 C-119.542676,-52.4672481 -150.19198,-58.9884656 -150.000897,0.000716407703 C-149.802535,58.9898985 -119.326906,52.2610875 -85.6446153,86.1375173 C-51.9623245,120.013947 -56.9716966,150.227943 0.000735282567,150.000005 Z" id="Oval" fill="#5BAA91"></path>
        <rect id="Rectangle" stroke="#979797" x="379.5" y="663.5" width="297" height="296"></rect>
        <polygon id="Path" fill="#FF0000" fill-rule="nonzero" points="328.821112 337.542308 328.821112 299.505254 362.117985 299.505254 362.117985 337.542308 379.806949 337.542308 379.806949 252.334683 362.117985 252.334683 362.117985 284.822258 328.821112 284.822258 328.821112 252.334683 311.189955 252.334683 311.189955 337.542308"></polygon>
        <path d="M445.882185,219.542308 C458.060208,219.542308 467.367147,222.85658 473.803001,229.485124 C482.396985,237.308348 486.693978,249.023915 486.693978,264.631824 C486.693978,279.931429 482.396985,291.646996 473.803001,299.778524 C467.367147,306.407068 458.060208,309.72134 445.882185,309.72134 C433.704161,309.72134 424.397223,306.407068 417.961369,299.778524 C409.328846,291.646996 405.012585,279.931429 405.012585,264.631824 C405.012585,249.023915 409.328846,237.308348 417.961369,229.485124 C424.397223,222.85658 433.704161,219.542308 445.882185,219.542308 Z M445.882185,234.629954 C438.829722,234.629954 433.203167,237.231272 429.00252,242.433908 C424.801872,247.636545 422.701549,255.03585 422.701549,264.631824 C422.701549,274.227798 424.801872,281.627103 429.00252,286.82974 C433.203167,292.032376 438.829722,294.633695 445.882185,294.633695 C452.934647,294.633695 458.541933,292.032376 462.704043,286.82974 C466.827614,281.627103 468.889399,274.227798 468.889399,264.631824 C468.889399,255.074388 466.817979,247.684717 462.675139,242.462812 C458.532299,237.240906 452.934647,234.629954 445.882185,234.629954 Z" id="Shape" fill="#FF0000" fill-rule="nonzero"></path>
        <path d="M552.777972,309.432305 C563.645701,309.432305 572.05663,306.85989 578.010759,301.715061 C583.964887,296.570231 586.941951,290.105474 586.941951,282.320788 C586.941951,274.728793 584.39844,268.928816 579.311418,264.920859 C576.035684,262.33881 571.17989,260.277025 564.744036,258.735503 C548.712208,254.701854 540.118223,252.351033 538.962081,251.68304 C536.264418,250.180056 534.915586,247.906311 534.915586,244.861805 C534.915586,241.547533 536.861389,238.690092 539.019888,237.115658 C544.380181,233.205797 566.241764,231.839449 567.056318,247.405317 L584.167212,247.405317 C583.858907,238.348875 580.535001,231.44093 574.195492,226.681481 C567.855983,221.922032 560.196546,219.542308 551.217181,219.542308 C540.465065,219.542308 532.314268,222.06655 526.764789,227.115034 C521.21531,232.163518 518.440571,238.503027 518.440571,246.133561 C518.440571,254.496317 521.60942,259.99557 527.053824,264.574017 C532.538489,269.186321 563.607163,275.615168 566.073598,277.118152 C568.540033,278.659674 569.773251,280.837073 569.773251,283.650351 C569.773251,288.467607 567.287547,291.76261 562.316139,293.53536 C559.695551,294.460273 534.815738,299.245998 534.04848,280.933418 L517.053201,280.933418 C517.053201,289.797169 520.23259,296.762922 526.591368,301.830675 C532.950146,306.898428 541.679014,309.432305 552.777972,309.432305 Z" id="Path" fill="#FF0000" fill-rule="nonzero"></path>
        <path d="M10.7910156,71.1914062 L10.7910156,40.7714844 L24.5605469,40.7714844 L39.2578125,71.1914062 L52.0996094,71.1914062 L35.5957031,39.5996094 C44.6451823,36.1165365 49.235026,29.5410156 49.3652344,19.8730469 C48.7864911,7.69140625 41.7864911,0.19140625 27.7832031,0 L0,0 L0,71.1914062 L10.7910156,71.1914062 Z" id="r" fill="#060606" fill-rule="nonzero"></path>
        <polygon id="e" fill="#060606" fill-rule="nonzero" points="45.4589844 71.1914062 45.4589844 60.9863281 10.7910156 60.9863281 10.7910156 40.0878906 40.3808594 40.0878906 40.3808594 30.5175781 10.7910156 30.5175781 10.7910156 10.2050781 45.4589844 10.2050781 45.4589844 0 0 0 0 71.1914062"></polygon>
        <path d="M10.7910156,71.1914062 C10.7202909,58.1914062 10.7202909,48.9303385 10.7910156,43.4082031 C41.6849286,43.1914062 49.2408527,38.7539063 49.4628906,21.9726562 C49.6849286,5.19140625 39.6849286,0.19140625 -1.0658141e-14,-2.13162821e-14 C0.123285727,11.4609375 0.123285727,35.1914062 -1.0658141e-14,71.1914062 L10.7910156,71.1914062 Z" id="p" fill="#060606" fill-rule="nonzero"></path>
        <polygon id="a" fill="#060606" fill-rule="nonzero" points="11.4257812 71.1914062 16.8945312 55.2734375 43.8964844 55.2734375 49.4140625 71.1914062 60.7910156 71.1914062 34.9121094 -1.13686838e-13 25.8789062 -1.13686838e-13 0 71.1914062"></polygon>
        <polygon id="i" fill="#060606" fill-rule="nonzero" points="10.7910156 71.1914062 10.7910156 0 0 0 0 71.1914062"></polygon>
        <polygon id="n" fill="#060606" fill-rule="nonzero" points="10.7910156 71.1914062 10.7910156 20.6054688 10.9863281 20.6054688 43.1640625 71.1914062 53.3691406 71.1914062 53.3691406 0 42.578125 0 42.578125 50.5859375 42.3828125 50.5859375 10.15625 0 0 0 0 71.1914062"></polygon>
        <path d="M50.3843171,47.6328439 L50.3843171,33.1308908 L25.0913484,33.1308908 C29.1299987,39.9368804 33.963983,43.3385731 39.5933015,43.3359689 C39.6493238,66.3398752 14.6493238,66.3398752 11.1753327,50.9531564 C10.6544994,48.4791981 10.6544994,24.9765939 11.1753327,22.4375314 C16.1493238,6.83987517 36.1493238,10.3398752 38.5679109,21.6562814 L49.9936921,21.6562814 C46.1493238,-5.16012483 6.64932382,-8.66012483 0.28666085,20.1426095 C-0.2016204,22.9420887 0.0272894672,50.3288506 0.28666085,53.2480783 C2.64932382,79.8398752 50.1493238,79.8398752 50.3843171,47.6328439 Z" id="g" fill="#060606" fill-rule="nonzero"></path>
        <polygon id="h" fill="#060606" fill-rule="nonzero" points="10.7910156 71.1914062 10.7910156 40.0878906 38.9648438 40.0878906 38.9648438 71.1914062 49.7558594 71.1914062 49.7558594 0 38.9648438 0 38.9648438 30.5175781 10.7910156 30.5175781 10.7910156 0 0 0 0 71.1914062"></polygon>
        <path d="M27.1972656,72.3632813 C58.612663,75.2773438 63.112663,34.2773438 32.6660156,31.2011719 C7.17318719,28.6255083 12.612663,9.77734375 26.4648438,10.7910156 C32.8776042,10.921224 38.7532552,12.7441406 44.0917969,16.2597656 L50.0976563,7.37304688 C43.5546875,2.65299479 35.8561198,0.1953125 27.0019531,1.42108547e-14 C-6.88733703,0.77734375 -2.38733703,38.7773437 26.65625,40.7714844 C48.1353892,42.2462479 48.112663,61.7773438 27.2949219,61.5722656 C19.4824219,61.5071615 12.7441406,59.1471354 7.08007813,54.4921875 L7.10542736e-15,62.5976563 C7.58463542,69.1080729 16.6746827,71.3872164 27.1972656,72.3632813 Z" id="s" fill="#060606" fill-rule="nonzero"></path>
        <polygon id="t" fill="#060606" fill-rule="nonzero" points="30.3222656 71.1914062 30.3222656 9.61914062 49.8046875 9.61914062 49.8046875 -1.13686838e-13 0 -1.13686838e-13 0 9.61914062 19.4824219 9.61914062 19.4824219 71.1914062"></polygon>
        <polygon id="#" fill="#060606" fill-rule="nonzero" points="13.9160156 71.1914062 16.9921875 49.4140625 26.8066406 49.4140625 23.6816406 71.1914062 31.4941406 71.1914062 34.6191406 49.4140625 44.4824219 49.4140625 44.4824219 42.7734375 35.3027344 42.7734375 37.5 28.4179687 47.4121094 28.4179687 47.4121094 21.7773437 38.1835938 21.7773437 41.3085938 -1.13686838e-13 33.4960938 -1.13686838e-13 30.4199219 21.7773437 20.6054688 21.7773437 23.6816406 -1.13686838e-13 15.9179688 -1.13686838e-13 12.7929688 21.7773437 2.9296875 21.7773437 2.9296875 28.4179687 12.109375 28.4179687 9.91210938 42.7734375 0 42.7734375 0 49.4140625 9.22851562 49.4140625 6.10351562 71.1914062"></polygon>
        <polygon id="Path" fill="#060606" fill-rule="nonzero" points="20.2050781 71.1914062 20.2050781 -1.13686838e-13 -1.12160715e-15 -1.13686838e-13 10 10.7910156 10 71.1914062"></polygon>
        <path d="M40.8286063,70.3962481 L40.8286063,60.1911699 L13.6313407,60.1911699 C28.8982678,41.0505449 36.5317313,31.4802324 36.5317313,31.4802324 C58.3397068,-1.60375195 0.339706767,-13.1037519 0.252434426,19.0778887 L10.4086844,19.0778887 C10.3397068,1.89624805 41.9085236,10.9233897 28.0356376,26.0114824 C7.5716837,48.2679928 -1.68938401,63.0629147 0.252434426,70.3962481 L40.8286063,70.3962481 Z" id="2" fill="#060606" fill-rule="nonzero"></path>
        <path d="M33.3984375,34.2731254 C58.4935223,-5.41046837 -0.00647765917,-10.4104684 0.390625,18.111016 L10.5957031,18.111016 C10.4935223,1.58953163 49.9935223,10.0895316 16.2597656,33.9117973 C49.9935223,48.0895316 17.9935223,74.0895316 10.2050781,53.4137504 L3.55271368e-15,53.4137504 C0.493522341,83.0895316 61.4935223,72.0895316 33.3984375,34.2731254 Z" id="3" fill="#060606" fill-rule="nonzero"></path>
        <polygon id="4" fill="#060606" fill-rule="nonzero" points="39.8925781 71.1914062 39.8925781 45.5957031 11.0839844 50.9765625 35.15625 0 23.7792969 0 0 50.9765625 0 60.5957031 29.6875 60.5957031 29.6875 71.1914062"></polygon>
        <path d="M40.5761719,47.0703125 C40.5735391,44.0755532 43.1048505,15.1914063 10.8886719,26.3183594 L10.8886719,10.2050781 L39.2089844,10.2050781 L39.2089844,-2.13162821e-14 L1.26953125,-2.13162821e-14 L1.26953125,39.4765625 C20.8264107,28.6197917 30.5269316,30.890625 30.3710938,46.2890625 C30.137337,69.3867188 9.60485047,62.6914063 10.2050781,53.2714844 L1.42108547e-14,53.2714844 C0.104850466,78.1914063 40.6048505,79.6914063 40.5761719,47.0703125 Z" id="5" fill="#060606" fill-rule="nonzero"></path>
        <polygon id="7" fill="#060606" fill-rule="nonzero" points="16.40625 71.1914062 44.5273438 0 -1.0658141e-14 0 10.2050781 10.2050781 29.1015625 10.2050781 5.02929687 71.1914062"></polygon>
        <path d="M20.5766682,72.3647562 C42.7296302,72.450494 48.4237062,44.778619 33.9067463,34.9622128 C42.4237062,29.278619 44.2296302,0.223931506 20.5766682,0.00127525599 C-3.07629383,-0.221380994 -1.07629383,28.778619 7.29541821,34.9622128 C-5.57629383,44.778619 -1.57629383,72.278619 20.5766682,72.3647562 Z" id="8" fill="#060606" fill-rule="nonzero"></path>
        <path d="M32.9925796,0 L21.3226577,0 L5.18825663,33.0022192 C4.31061669,34.8069053 3.77116916,35.9209322 3.74453272,35.9863281 L3.47358252,36.6581522 C0.276912784,44.6675489 -2.49957022,54.762317 3.6957046,64.1601562 C7.21585413,69.5 20.6518851,77.3210079 33.9935562,66.3085937 C43.9404534,58.0982765 41.5623701,42.3052998 38.6800796,37.5478516 C31.4404534,25.5982765 18.9404534,28.5982765 17.6117202,30.1757812 L18.1935562,29.0698242 C21.0409194,23.5722656 33.0218765,0 32.9925796,0 Z" id="6" fill="#DD4949" fill-rule="nonzero"></path>
        <path d="M20.1660156,72.3662789 C37.0169598,72.279949 40.250651,58.4010428 40.3808594,51.858074 L40.3808594,20.4615896 C40.250651,13.8860688 37.0169598,-0.220050997 20.1660156,0.00260525253 C3.31507141,0.225261503 0.0651041667,13.8860688 0,20.4615896 L0,51.858074 C0.0651041667,58.4010428 3.31507141,72.451824 20.1660156,72.3662789 Z" id="0" fill="#060606" fill-rule="nonzero"></path>
        <polygon id="T" fill="#FF0000" fill-rule="nonzero" points="655.676312 325.700617 655.676312 255.580638 681.169231 255.580638 681.169231 240.492992 612.147587 240.492992 612.147587 255.580638 637.75612 255.580638 637.75612 325.700617"></polygon>
        <polyline id="Path-2" stroke="#979797" points="528.5 663 528.5 812.5 528.5 960 380 811.5 677 811.5"></polyline>
        <line x1="405.5" y1="688.5" x2="687" y2="970" id="Path-3" stroke="#979797"></line>
        <line x1="414.5" y1="925.5" x2="665.5" y2="675" id="Path-4" stroke="#979797"></line>
    </g>
</svg>