<svg xmlns="http://www.w3.org/2000/svg" xmlns:xlink="http://www.w3.org/1999/xlink" width="1000" height="1000">
    <defs>
        <g id="a">
            <circle fill="#fd6" cx="25" cy="25" r="25" />
            <circle fill="#db5" cx="25" cy="25" r="19" />
            <path d="m29.6 36-4.5-4.6-4.5 4.6c-1.6 1.6-8-4.8-6.4-6.4l4.5-4.5-4.5-4.5c-1.6-1.6 4.8-8 6.4-6.4l4.5 4.5 4.5-4.5c1.6-1.6 8 4.8 6.4 6.4L31.4 25l4.6 4.5c1.6 1.6-4.8 8-6.4 6.4Z" fill="#F1D45E" />
        </g>
        <g id="d">
            <use xlink:href="#a" transform="translate(498 279)" />
            <use xlink:href="#a" transform="translate(528 227)" />
            <use xlink:href="#a" transform="translate(572 186)" />
            <use xlink:href="#a" transform="translate(629 163)" />
            <use xlink:href="#a" transform="translate(688 164)" />
            <use xlink:href="#a" transform="translate(749 186)" />
            <use xlink:href="#a" transform="translate(683 235)" />
            <use xlink:href="#a" transform="translate(623 246)" />
            <use xlink:href="#a" transform="translate(742 257)" />
            <use xlink:href="#a" transform="translate(585 296)" />
            <use xlink:href="#a" transform="translate(649 370)" />
            <use xlink:href="#a" transform="translate(714 373)" />
            <use xlink:href="#a" transform="translate(774 397)" />
            <use xlink:href="#a" transform="translate(844 374)" />
            <use xlink:href="#a" transform="translate(786 321)" />
            <use xlink:href="#a" transform="translate(823 447)" />
            <use xlink:href="#a" transform="translate(694 472)" />
            <use xlink:href="#a" transform="translate(750 499)" />
            <use xlink:href="#a" transform="translate(771 553)" />
            <use xlink:href="#a" transform="translate(838 524)" />
        </g>
        <g id="f">
            <use xlink:href="#b" fill="url(#c)" />
            <use xlink:href="#b" fill="url(#c)" transform="matrix(-1 0 0 1 995 0)" />
            <use xlink:href="#d" transform="matrix(-1 0 0 1 1021 -25)" />
            <use xlink:href="#d" transform="translate(-25 -25)" />
        </g>
        <path d="M424.4 218.5c31.9 29.5 60.8 70.7 73.6 134.3v305.7c-15.5 0-40.9 9.7-45 17.3-45.8 84.4-61.8 161-61.8 263.8 0 19.8 1 41.3 2.8 60.6H275c5-130.6 46.7-239 130-328.5 7.8-8.4-15.1-8.6-28-6.4a786 786 0 0 0-34 6.8A518.4 518.4 0 0 0 123.9 1000H2.8a519.4 519.4 0 0 1 245.9-299.9C156.6 734.7 63.5 797.7-6 864.7V854l2-2c96-104.2 205.7-170 345.1-211.6 28.7-8.5 48.9-59.7 48.9-90.4 0-53-20.5-103-93-103-72.4 0-129.4 103-77.4 148-87.5-32-15-167 85-167 61.9 0 97.9 19 116.4 48.9l.2-1.3c2.7-15.5 2.7-32.3 2.6-38.7-.6-43.4-27-88.3-84-92.9-56.8-4.6-145.4 13-191.4 93.8 26.3-98.8 132.3-128 191.5-125.3 53.7 2.5 108 37.7 125.2 92.7-3.7-72.2-34.3-135.4-59.2-164.2-28.5-33-105.5-54-180.5 6.5 20.5-55.5 133-90 199-29Z" id="b" />
        <path id="e" d="M0 150c57-.2 52.3-30.1 86.4-64.6 34.1-34.5 63.4-33 63.6-85.4.2-52.4-30.4-52-64-85.8-33.6-33.7-32-64-86-64.2-54-.2-52 30.5-85.8 64-33.7 33.5-64.4 27-64.2 86 .2 59 30.7 52.3 64.4 86.1C-52 120.1-57 150.2 0 150Z" />
        <radialGradient cx="50%" cy="26.4%" fx="50%" fy="26.4%" r="83.3%" gradientTransform="matrix(-.20706 .96593 -1.08184 -.36235 .9 -.1)" id="c">
            <stop stop-color="#FFF" offset="0%" />
            <stop stop-color="#FFF" offset="60%" />
            <stop stop-color="#023" offset="100%" />
        </radialGradient>
    </defs>
    <path fill="#412" d="M0 0h1000v698H0z" />
    <use xlink:href="#e" fill="#825" transform="rotate(-2 27339 -14967.1) scale(7)" />
    <use xlink:href="#e" fill="#938" transform="rotate(-10 4026 -2573.2) scale(4)" />
    <use xlink:href="#e" fill="#d8b" transform="rotate(10 -3082.2 3145.6) scale(2.2)" />
    <circle fill="#023" cx="500" cy="1365" r="714" />
    <use xlink:href="#f" />
</svg>