<svg width="1000" height="1000" xmlns="http://www.w3.org/2000/svg" xmlns:xlink="http://www.w3.org/1999/xlink">
    <defs>
        <g id="a" fill="#72838A">
            <circle cx="25" cy="25" r="25" />
            <circle cx="25" cy="25" r="19" />
            <path d="m29.6 36-4.5-4.6-4.5 4.6c-1.6 1.6-8-4.8-6.4-6.4l4.5-4.5-4.5-4.5c-1.6-1.6 4.8-8 6.4-6.4l4.5 4.5 4.5-4.5c1.6-1.6 8 4.8 6.4 6.4L31.4 25l4.6 4.5c1.6 1.6-4.8 8-6.4 6.4Z" />
        </g>
        <g id="e">
            <use xlink:href="#a" transform="translate(498 279)" />
            <use xlink:href="#a" transform="translate(528 227)" />
            <use xlink:href="#a" transform="translate(572 186)" />
            <use xlink:href="#a" transform="translate(629 163)" />
            <use xlink:href="#a" transform="translate(688 164)" />
            <use xlink:href="#a" transform="translate(749 186)" />
            <use xlink:href="#a" transform="translate(683 235)" />
            <use xlink:href="#a" transform="translate(623 246)" />
            <use xlink:href="#a" transform="translate(742 257)" />
            <use xlink:href="#a" transform="translate(585 296)" />
            <use xlink:href="#a" transform="translate(649 370)" />
            <use xlink:href="#a" transform="translate(714 373)" />
            <use xlink:href="#a" transform="translate(774 397)" />
            <use xlink:href="#a" transform="translate(844 374)" />
            <use xlink:href="#a" transform="translate(786 321)" />
            <use xlink:href="#a" transform="translate(823 447)" />
            <use xlink:href="#a" transform="translate(694 472)" />
            <use xlink:href="#a" transform="translate(750 499)" />
            <use xlink:href="#a" transform="translate(771 553)" />
            <use xlink:href="#a" transform="translate(838 524)" />
        </g>
        <g id="tree">
            <use xlink:href="#c" fill="#72838A" />
            <use xlink:href="#c" fill="#72838A" transform="matrix(-1 0 0 1 995 0)" />
            <use xlink:href="#e" transform="matrix(-1 0 0 1 1021 -25)" />
            <use xlink:href="#e" transform="translate(-25 -25)" />
        </g>
        <path id="c"  d="M424.4 218.5c31.9 29.5 60.8 70.7 73.6 134.3v305.7c-15.5 0-40.9 9.7-45 17.3-45.8 84.4-61.8 161-61.8 263.8 0 19.8 1 41.3 2.8 60.6H275c5-130.6 46.7-239 130-328.5 7.8-8.4-15.1-8.6-28-6.4a786 786 0 0 0-34 6.8A518.4 518.4 0 0 0 123.9 1000H2.8a519.4 519.4 0 0 1 245.9-299.9C156.6 734.7 63.5 797.7-6 864.7V854l2-2c96-104.2 205.7-170 345.1-211.6 28.7-8.5 48.9-59.7 48.9-90.4 0-53-20.5-103-93-103-72.4 0-129.4 103-77.4 148-87.5-32-15-167 85-167 61.9 0 97.9 19 116.4 48.9l.2-1.3c2.7-15.5 2.7-32.3 2.6-38.7-.6-43.4-27-88.3-84-92.9-56.8-4.6-145.4 13-191.4 93.8 26.3-98.8 132.3-128 191.5-125.3 53.7 2.5 108 37.7 125.2 92.7-3.7-72.2-34.3-135.4-59.2-164.2-28.5-33-105.5-54-180.5 6.5 20.5-55.5 133-90 199-29Z"/>

        <path id="0" d="M20.2 72.4c16.8-.1 20-14 20.2-20.5V20.5C40.3 13.9 37-.2 20.2 0 3.3.2 0 13.9 0 20.5v31.4c0 6.5 3.3 20.6 20.2 20.5Z" />
        <path id="1" fill-rule="nonzero" d="M20.2 71.2V0H0l10 10.8v60.4z" />
        <path id="2" d="M40.8 70.4V60.2H13.6l23-28.7C58.2-1.6.2-13.1.2 19h10.1c0-17.2 31.5-8.2 17.6 7C7.6 48.2-1.7 63 .3 70.3h40.5Z"  />
        <path id="3" d="M33.4 34.3C58.4-5.4 0-10.4.4 18h10.2c-.1-16.5 39.4-8 5.7 15.8 33.7 14.2 1.7 40.2-6 19.5H0c.5 29.7 61.5 18.7 33.4-19.1Z" />
        <path id="4" fill-rule="nonzero" d="M39.9 71.2V45.6L11.1 51 35.2 0H23.8L0 51v9.6h29.7v10.6z" />
        <path id="5" d="M40.6 47c0-3 2.5-31.8-29.7-20.7v-16h28.3V0h-38v39.5c19.6-10.9 29.3-8.6 29.2 6.8-.3 23-20.8 16.4-20.2 7H0C.1 78.2 40.6 79.7 40.6 47Z" />
        <path id="6" d="M33 0H21.3L5.2 33l-1.5 3-.2.7c-3.2 8-6 18 .2 27.5 3.5 5.3 17 13.1 30.3 2.1 10-8.2 7.6-24 4.7-28.8-7.3-11.9-19.8-8.9-21-7.3l.5-1.1L33 0Z" />
        <path id="7" fill-rule="nonzero" d="M16.4 71.2 44.5 0H0l10.2 10.2h18.9L5 71.2z" />
        <path id="8" d="M20.6 72.4c22.1 0 27.8-27.6 13.3-37.4C42.4 29.3 44.2.2 20.6 0-3.1-.2-1.1 28.8 7.3 35c-12.9 9.8-8.9 37.3 13.3 37.4Z" />
    </defs>
    <circle cx="500" cy="500" r="500" fill="#72838A" />
    <circle cx="500" cy="500" r="370" fill="#dee" />
    <use xlink:href="#tree" transform="matrix(.68 0 0 .68 160.5 183)" />
    <g fill="#dee" transform="translate(476 32)"><path d="M-78.6 82.4-85.1 52l27.6-5.9 6.5 30.4 10.5-2.2-14.8-69.7L-65.9 7l6.4 29.8-27.6 5.9-6.3-29.8L-104 15l14.8 69.6z" /><use xlink:href="#0" transform="scale(1.3 1) rotate(-3 -11.5 440.6)" />
        <path d="M63.7 73.3c31.2 4 37.3-36.8 6.9-41-25.4-3.5-19.2-22-5.5-20.6 6.4.3 12.2 2.4 17.4 6.1L88.8 9A40 40 0 0 0 66 1c-34-.4-30.8 37.7-1.7 40.7C85.6 44 84.9 63.4 64 62.5a31 31 0 0 1-20-7.8l-7.3 7.9a46 46 0 0 0 26.9 10.7ZM123.5 83.2l13.9-60 19 4.4 2.1-9.4L110 7l-2.2 9.4 19 4.3-13.8 60z" />
    </g>
    <g fill="#dee" style="transform: translate(452.6452479024119px, 897.3472765472395px) rotate(0.11191923828413639rad)">
    <path id="#" d="M13.9 71.2 17 49.4h9.8l-3.1 21.8h7.8l3.1-21.8h9.9v-6.6h-9.2l2.2-14.4h9.9v-6.6h-9.2L41.3 0h-7.8l-3.1 21.8h-9.8L23.7 0h-7.8l-3.1 21.8H2.9v6.6h9.2L9.9 42.8H0v6.6h9.2L6.1 71.2z" />
    <use xlink:href="#1" style="transform: translate(53.1px, -3.3px) rotate(-0.13rad) " />
    </g>
</svg>