<svg width="1000" height="1000" xmlns="http://www.w3.org/2000/svg" xmlns:xlink="http://www.w3.org/1999/xlink">
    <defs>
        <g id="a">
            <circle fill="#F1D45E" cx="25" cy="25" r="25" />
            <circle fill="#D5B35B" cx="25" cy="25" r="19" />
            <path d="m29.6 36-4.5-4.6-4.5 4.6c-1.6 1.6-8-4.8-6.4-6.4l4.5-4.5-4.5-4.5c-1.6-1.6 4.8-8 6.4-6.4l4.5 4.5 4.5-4.5c1.6-1.6 8 4.8 6.4 6.4L31.4 25l4.6 4.5c1.6 1.6-4.8 8-6.4 6.4Z" fill="#F1D45E" />
        </g>
        <g id="e">
            <use xlink:href="#a" transform="translate(498 279)" />
            <use xlink:href="#a" transform="translate(528 227)" />
            <use xlink:href="#a" transform="translate(572 186)" />
            <use xlink:href="#a" transform="translate(629 163)" />
            <use xlink:href="#a" transform="translate(688 164)" />
            <use xlink:href="#a" transform="translate(749 186)" />
            <use xlink:href="#a" transform="translate(683 235)" />
            <use xlink:href="#a" transform="translate(623 246)" />
            <use xlink:href="#a" transform="translate(742 257)" />
            <use xlink:href="#a" transform="translate(585 296)" />
            <use xlink:href="#a" transform="translate(649 370)" />
            <use xlink:href="#a" transform="translate(714 373)" />
            <use xlink:href="#a" transform="translate(774 397)" />
            <use xlink:href="#a" transform="translate(844 374)" />
            <use xlink:href="#a" transform="translate(786 321)" />
            <use xlink:href="#a" transform="translate(823 447)" />
            <use xlink:href="#a" transform="translate(694 472)" />
            <use xlink:href="#a" transform="translate(750 499)" />
            <use xlink:href="#a" transform="translate(771 553)" />
            <use xlink:href="#a" transform="translate(838 524)" />
        </g>
        <radialGradient cx="50%" cy="26.4%" fx="50%" fy="26.4%" r="83.3%" gradientTransform="matrix(-.20706 .96593 -1.08184 -.36235 .9 -.1)" id="d">
            <stop stop-color="#FFF" offset="0%" />
            <stop stop-color="#FFF" offset="60%" />
            <stop stop-color="#023" offset="100%" />
        </radialGradient>
        <rect id="b" x="-50" y="-14" width="100" height="28" rx="14" />
        <path d="M424.4 218.5c31.9 29.5 60.8 70.7 73.6 134.3v305.7c-15.5 0-40.9 9.7-45 17.3-45.8 84.4-61.8 161-61.8 263.8 0 19.8 1 41.3 2.8 60.6H275c5-130.6 46.7-239 130-328.5 7.8-8.4-15.1-8.6-28-6.4-11.4 2-22.7 4.3-34 6.8A518.4 518.4 0 0 0 123.9 1000H2.8a519.4 519.4 0 0 1 245.9-299.9C156.6 734.7 63.5 797.7-6 864.7V854l2-2C92 747.8 201.7 682 341.1 640.4c28.7-8.5 48.9-59.7 48.9-90.4 0-53-20.5-103-93-103C224.6 447 167.6 550 219.6 595c-87.5-32-15-167 85-167 61.9 0 97.9 19 116.4 48.9l.2-1.3c2.7-15.5 2.7-32.3 2.6-38.7-.6-43.4-27-88.3-84-92.9-56.8-4.6-145.4 13-191.4 93.8 26.3-98.8 132.3-128 191.5-125.3 53.7 2.5 108 37.7 125.2 92.7-3.7-72.2-34.3-135.4-59.2-164.2-28.5-33-105.5-54-180.5 6.5 20.5-55.5 133-90 199-29Z" id="c" />
    </defs>
    <path fill="#412" d="M0 0h1000v698H0z" />
    <circle fill="#825" cx="501.5" cy="777.5" r="822.5" />
    <circle fill="#938" cx="500.5" cy="678" r="568.5" />
    <circle fill="#d8b" cx="500" cy="539" r="303.7" />
    <circle fill="#023" cx="500" cy="1365" r="714" />
    <use xlink:href="#b" fill="#825" transform="rotate(56 -33.5 109.5)" />
    <use xlink:href="#b" fill="#412" transform="rotate(59 2.8 134.9)" />
    <use xlink:href="#b" fill="#825" transform="rotate(64 65.2 132.8)" />
    <use xlink:href="#b" fill="#825" transform="rotate(43 -341.2 235.6)" />
    <use xlink:href="#b" fill="#938" transform="rotate(48 -253 268.8)" />
    <use xlink:href="#b" fill="#938" transform="rotate(67 35.1 325.5)" />
    <use xlink:href="#b" fill="#825" transform="rotate(74 80.3 310.9)" />
    <use xlink:href="#b" fill="#938" transform="rotate(-15 2433.7 -436.9)" />
    <use xlink:href="#b" fill="#d8b" transform="rotate(36 -424 590.3)" />
    <use xlink:href="#b" fill="#938" transform="rotate(-13 2438.6 -3260.7)" />
    <use xlink:href="#b" fill="#d8b" transform="rotate(27 -994.2 1932.6)" />
    <use xlink:href="#b" fill="#d8b" transform="rotate(121 258.3 335.6)" />
    <use xlink:href="#b" fill="#825" transform="rotate(121 332.9 321.7)" />
    <use xlink:href="#b" fill="#938" transform="rotate(127 366.7 318.9)" />
    <use xlink:href="#b" fill="#938" transform="rotate(132 376.2 319)" />
    <use xlink:href="#b" fill="#825" transform="rotate(123 449.3 310)" />
    <use xlink:href="#b" fill="#825" transform="rotate(94 220.4 301)" />
    <use xlink:href="#c" fill="url(#d)" />
    <use xlink:href="#c" fill="url(#d)" transform="matrix(-1 0 0 1 995 0)" />
    <use xlink:href="#e" transform="matrix(-1 0 0 1 1021 -25)" />
    <use xlink:href="#e" transform="translate(-25 -25)" />
</svg>